<?xml version="1.0" encoding="UTF-8"?>
<svg width="16px" height="16px" viewBox="0 0 16 16" version="1.1" xmlns="http://www.w3.org/2000/svg" xmlns:xlink="http://www.w3.org/1999/xlink">
    <!-- Generator: Sketch 42 (36781) - http://www.bohemiancoding.com/sketch -->
    <title>ic_mic</title>
    <desc>Created with Sketch.</desc>
    <defs></defs>
    <g id="assets" stroke="none" stroke-width="1" fill="none" fill-rule="evenodd">
        <g id="ic_mic_24px-copy-2">
            <g id="Group">
                <polygon id="Shape" points="0 0 16 0 16 16 0 16"></polygon>
                <path d="M8,9.33333333 C9.10666667,9.33333333 9.99333333,8.44 9.99333333,7.33333333 L10,3.33333333 C10,2.22666667 9.10666667,1.33333333 8,1.33333333 C6.89333333,1.33333333 6,2.22666667 6,3.33333333 L6,7.33333333 C6,8.44 6.89333333,9.33333333 8,9.33333333 Z M11.5333333,7.33333333 C11.5333333,9.33333333 9.84,10.7333333 8,10.7333333 C6.16,10.7333333 4.46666667,9.33333333 4.46666667,7.33333333 L3.33333333,7.33333333 C3.33333333,9.60666667 5.14666667,11.4866667 7.33333333,11.8133333 L7.33333333,14 L8.66666667,14 L8.66666667,11.8133333 C10.8533333,11.4933333 12.6666667,9.61333333 12.6666667,7.33333333 L11.5333333,7.33333333 Z" id="Shape" fill-opacity="0.54" fill="#000000" fill-rule="nonzero"></path>
            </g>
        </g>
    </g>
</svg>